<svg width="128" height="40" viewBox="0 0 128 40" fill="none" xmlns="http://www.w3.org/2000/svg">
<path fill-rule="evenodd" clip-rule="evenodd" d="M38.7169 0.00323258H38.8547V40H36.6502L28.1076 39.9995L25.9031 40V2.20839H12.676V37.7927H12.8138V39.9995H12.676L10.4715 40L2.20452 39.9995L0 40V0.00323258H0.137783V0.00161629H38.7169V0.00323258ZM2.20452 37.7927H10.4715V2.20839H2.20452V37.7927ZM28.1076 37.7927H36.6502V2.20839H28.1076V37.7927Z" fill="black"/>
<path fill-rule="evenodd" clip-rule="evenodd" d="M84.1851 0.00323258H84.3229V40H82.1184V39.9978H73.8515L71.6469 39.9984V27.0346H58.1442V40H55.9397L47.6728 39.9995L45.4682 40V0.00323258H45.606V0.00161629H58.0065V0.00323258H58.1442V24.8279H71.6469V0.00161629H71.7847V0H84.1851V0.00323258ZM47.6728 37.7927H55.9397V27.0346H47.6728V37.7927ZM73.8515 37.7911H82.1184V27.0346H73.8515V37.7911ZM47.6728 24.8279H55.9397V2.20839H47.6728V24.8279ZM73.8515 2.20678V24.8279H82.1184V2.20678H73.8515Z" fill="black"/>
<path fill-rule="evenodd" clip-rule="evenodd" d="M128 12.4147H125.795V2.20839H115.186V40H112.982L104.715 39.9995L102.51 40V2.20839H91.6254V12.4147H89.4209V0.00161629H128V12.4147ZM104.715 37.7927H112.982V2.20839H104.715V37.7927Z" fill="black"/>
</svg>
